<svg xmlns="http://www.w3.org/2000/svg" xmlns:xlink="http://www.w3.org/1999/xlink" width="100.0" height="100.0" viewBox="-107.175205078125 25.31950584411621 14.193679504394538 11.700063400268558" preserveAspectRatio="xMinYMin meet"><g transform="matrix(1,0,0,-1,0,62.33907508850098)"><g><path fill-rule="evenodd" fill="#66cc99" stroke="#555555" stroke-width="0.28387359008789076" opacity="0.6" d="M -105.99835968017578,31.393817901611328 L -106.21275329589844,31.47812843322754 L -106.38304138183594,31.733762741088867 L -106.53897094726562,31.786197662353516 L -106.61444091796875,31.81772804260254 L -106.6155776977539,31.844635009765625 L -106.6435317993164,31.89510154724121 L -106.6332015991211,31.913997650146484 L -106.6320571899414,31.972118377685547 L -106.6495132446289,31.980228424072266 L -106.62307739257812,32.0009880065918 L -106.37784576416016,32.00064468383789 L -106.0027084350586,32.00155258178711 L -104.92179870605469,32.004268646240234 L -104.8505630493164,32.003150939941406 L -104.01881408691406,32.00727844238281 L -103.98089599609375,32.005889892578125 L -103.72897338867188,32.006103515625 L -103.33209228515625,32.004154205322266 L -103.05796813964844,32.00189971923828 L -103.05519104003906,32.08499526977539 L -103.0595474243164,32.51543045043945 L -103.04883575439453,32.95353317260742 L -103.0426025390625,33.37772750854492 L -103.03823852539062,33.56574249267578 L -103.03276062011719,33.826087951660156 L -103.02914428710938,34.307743072509766 L -103.02215576171875,34.74526596069336 L -103.02474975585938,34.964717864990234 L -103.02565002441406,35.177207946777344 L -103.02179718017578,35.62360382080078 L -103.0221176147461,35.742286682128906 L -103.0235595703125,36.056026458740234 L -103.02680206298828,36.4915657043457 L -102.99691772460938,36.49234390258789 L -102.16522216796875,36.49020767211914 L -102.03421020507812,36.49295425415039 L -101.62031555175781,36.49200439453125 L -101.08966827392578,36.48802185058594 L -100.9569091796875,36.48960876464844 L -100.5494155883789,36.48944854736328 L -100.00686645507812,36.49387741088867 L -100.00114440917969,36.49251937866211 L -99.99715423583984,36.05754852294922 L -99.99772644042969,35.883792877197266 L -100.0,35.61880874633789 L -99.99435424804688,35.4245719909668 L -99.99718475341797,35.18218231201172 L -99.9960708618164,35.03099822998047 L -99.9988784790039,34.74718475341797 L -99.99609375,34.562320709228516 L -99.97209930419922,34.56186294555664 L -99.94474029541016,34.57957077026367 L -99.9319076538086,34.57910919189453 L -99.88059997558594,34.54817581176758 L -99.8605728149414,34.51862716674805 L -99.8299331665039,34.50177764892578 L -99.7776870727539,34.443992614746094 L -99.68490600585938,34.377445220947266 L -99.60144805908203,34.36855697631836 L -99.58522033691406,34.384857177734375 L -99.57785034179688,34.408912658691406 L -99.55386352539062,34.41518020629883 L -99.50213623046875,34.40406799316406 L -99.47943878173828,34.383522033691406 L -99.4383773803711,34.36470413208008 L -99.40995788574219,34.36910629272461 L -99.39415740966797,34.39674377441406 L -99.39279174804688,34.428993225097656 L -99.36420440673828,34.4501953125 L -99.32329559326172,34.4127082824707 L -99.26717376708984,34.398284912109375 L -99.25410461425781,34.36821365356445 L -99.20549011230469,34.331993103027344 L -99.19630432128906,34.30512237548828 L -99.20459747314453,34.255645751953125 L -99.19048309326172,34.22373580932617 L -99.17615509033203,34.212730407714844 L -99.12794494628906,34.20146942138672 L -99.07843017578125,34.20835876464844 L -99.03521728515625,34.19892120361328 L -98.9961929321289,34.209495544433594 L -98.95250701904297,34.19456481933594 L -98.89134216308594,34.16082000732422 L -98.81106567382812,34.14593505859375 L -98.77853393554688,34.131961822509766 L -98.70529174804688,34.130714416503906 L -98.68221282958984,34.14999771118164 L -98.6617202758789,34.147037506103516 L -98.62599182128906,34.1584358215332 L -98.60724639892578,34.151397705078125 L -98.57633209228516,34.141929626464844 L -98.55757904052734,34.1053352355957 L -98.49951934814453,34.06641387939453 L -98.44818878173828,34.05437469482422 L -98.42134094238281,34.06583023071289 L -98.40713500976562,34.082454681396484 L -98.39095306396484,34.08723068237305 L -98.3842544555664,34.115779876708984 L -98.35040283203125,34.142120361328125 L -98.32048797607422,34.13941955566406 L -98.2770004272461,34.12287139892578 L -98.17284393310547,34.1153678894043 L -98.1368637084961,34.138431549072266 L -98.1148681640625,34.14898681640625 L -98.09412384033203,34.13455581665039 L -98.11068725585938,34.069820404052734 L -98.0862045288086,34.005313873291016 L -98.05555725097656,33.98979949951172 L -98.02349090576172,33.98698425292969 L -97.98268127441406,34.001285552978516 L -97.95022583007812,33.971160888671875 L -97.94775390625,33.95975112915039 L -97.96299743652344,33.94865036010742 L -97.95068359375,33.932518005371094 L -97.97612762451172,33.912052154541016 L -97.97637939453125,33.902503967285156 L -97.9547348022461,33.883480072021484 L -97.90906524658203,33.8740234375 L -97.8697509765625,33.8551139831543 L -97.85254669189453,33.85707092285156 L -97.79020690917969,33.89045715332031 L -97.75636291503906,33.932098388671875 L -97.72901916503906,33.939292907714844 L -97.70426177978516,33.9715461730957 L -97.67106628417969,33.98861312866211 L -97.60018157958984,33.96943664550781 L -97.59235382080078,33.917884826660156 L -97.57566833496094,33.902530670166016 L -97.5545883178711,33.90390396118164 L -97.51820373535156,33.916770935058594 L -97.47753143310547,33.90770721435547 L -97.46276092529297,33.902381896972656 L -97.45706176757812,33.89043045043945 L -97.4527359008789,33.836212158203125 L -97.41011810302734,33.820709228515625 L -97.36331939697266,33.831024169921875 L -97.34180450439453,33.861915588378906 L -97.31495666503906,33.870391845703125 L -97.3140869140625,33.89583969116211 L -97.27227783203125,33.87257385253906 L -97.26390838623047,33.85873031616211 L -97.25068664550781,33.87297058105469 L -97.24606323242188,33.89423751831055 L -97.21133422851562,33.90568923950195 L -97.1877670288086,33.89920425415039 L -97.16416931152344,33.8631477355957 L -97.16859436035156,33.84779357910156 L -97.19501495361328,33.836158752441406 L -97.20832061767578,33.81964874267578 L -97.18916320800781,33.752769470214844 L -97.15247344970703,33.728668212890625 L -97.11556243896484,33.72593307495117 L -97.09049987792969,33.73167037963867 L -97.08346557617188,33.74241256713867 L -97.0876693725586,33.80757141113281 L -97.0500259399414,33.823448181152344 L -97.0782470703125,33.83781051635742 L -97.0821762084961,33.85110092163086 L -97.0708999633789,33.856727600097656 L -97.02559661865234,33.84056091308594 L -97.00585174560547,33.85051345825195 L -96.98770904541016,33.87642288208008 L -96.98786163330078,33.9442024230957 L -96.96818542480469,33.937320709228516 L -96.93620300292969,33.94784927368164 L -96.9295654296875,33.96177291870117 L -96.89845275878906,33.95002746582031 L -96.88285064697266,33.924591064453125 L -96.87893676757812,33.884002685546875 L -96.86101531982422,33.86167907714844 L -96.84400939941406,33.8580322265625 L -96.81411743164062,33.871768951416016 L -96.79759216308594,33.86994934082031 L -96.74882507324219,33.83173751831055 L -96.71167755126953,33.83386993408203 L -96.6933822631836,33.847904205322266 L -96.67770385742188,33.90432357788086 L -96.6662368774414,33.913543701171875 L -96.58448791503906,33.89614486694336 L -96.61416625976562,33.86289978027344 L -96.6011962890625,33.84295654296875 L -96.5621337890625,33.82542037963867 L -96.51057434082031,33.8156852722168 L -96.50074768066406,33.788089752197266 L -96.48737335205078,33.77812957763672 L -96.41946411132812,33.788326263427734 L -96.37081909179688,33.740394592285156 L -96.34758758544922,33.705528259277344 L -96.31627655029297,33.70180130004883 L -96.30078887939453,33.71405029296875 L -96.28968048095703,33.761932373046875 L -96.278076171875,33.77338790893555 L -96.2125473022461,33.756690979003906 L -96.18702697753906,33.758583068847656 L -96.16881561279297,33.76935577392578 L -96.16131591796875,33.7982292175293 L -96.14141845703125,33.82032012939453 L -96.1545181274414,33.823944091796875 L -96.18072509765625,33.808433532714844 L -96.1831283569336,33.815792083740234 L -96.16920471191406,33.828983306884766 L -96.14896392822266,33.83559036254883 L -96.10944366455078,33.82925796508789 L -96.09152221679688,33.84457778930664 L -96.0479736328125,33.841278076171875 L -96.02674865722656,33.856021881103516 L -96.01406860351562,33.844207763671875 L -96.00179290771484,33.85697937011719 L -96.00261688232422,33.873390197753906 L -95.99420928955078,33.8753776550293 L -95.9773941040039,33.85795211791992 L -95.9587631225586,33.86503982543945 L -95.94306945800781,33.88997268676758 L -95.93307495117188,33.89052963256836 L -95.8465576171875,33.84103775024414 L -95.82597351074219,33.84302520751953 L -95.79547882080078,33.86467361450195 L -95.76851654052734,33.851402282714844 L -95.76425170898438,33.879005432128906 L -95.76069641113281,33.89344024658203 L -95.74686431884766,33.90339660644531 L -95.69970703125,33.89482498168945 L -95.63349151611328,33.92010498046875 L -95.61298370361328,33.92023849487305 L -95.61483001708984,33.93669128417969 L -95.60607147216797,33.94455337524414 L -95.56277465820312,33.936073303222656 L -95.54631805419922,33.90403366088867 L -95.51957702636719,33.90664291381836 L -95.5267333984375,33.8978157043457 L -95.54749298095703,33.893157958984375 L -95.54403686523438,33.8857421875 L -95.51288604736328,33.897735595703125 L -95.49885559082031,33.881717681884766 L -95.46812438964844,33.88643264770508 L -95.45160675048828,33.865753173828125 L -95.33003997802734,33.87091827392578 L -95.33622741699219,33.89711380004883 L -95.30195617675781,33.88662338256836 L -95.28643035888672,33.88690185546875 L -95.27735137939453,33.917938232421875 L -95.26361846923828,33.89780044555664 L -95.25099182128906,33.90502166748047 L -95.25128936767578,33.93644332885742 L -95.23403930664062,33.96486282348633 L -95.1483154296875,33.943546295166016 L -95.12796783447266,33.94086837768555 L -95.12667846679688,33.917144775390625 L -95.11922454833984,33.91228103637695 L -95.0953598022461,33.92173767089844 L -95.08226776123047,33.918453216552734 L -95.08971405029297,33.896915435791016 L -95.08360290527344,33.88846206665039 L -95.0634765625,33.91764831542969 L -95.06314086914062,33.89669418334961 L -95.04286193847656,33.88444519042969 L -95.03736114501953,33.866451263427734 L -95.01277160644531,33.86994552612305 L -94.9892807006836,33.85618209838867 L -94.96870422363281,33.866214752197266 L -94.95990753173828,33.84807586669922 L -94.93988800048828,33.840824127197266 L -94.94039916992188,33.8158073425293 L -94.9182357788086,33.81619644165039 L -94.9085464477539,33.8034782409668 L -94.91387939453125,33.78959655761719 L -94.88163757324219,33.77496337890625 L -94.85787963867188,33.74932098388672 L -94.81916046142578,33.74940490722656 L -94.80322265625,33.73958206176758 L -94.78350830078125,33.75326156616211 L -94.76417541503906,33.75284194946289 L -94.78202819824219,33.74226760864258 L -94.78315734863281,33.733665466308594 L -94.74977111816406,33.7367057800293 L -94.7627182006836,33.716796875 L -94.74211120605469,33.71904754638672 L -94.75447845458984,33.70777130126953 L -94.74165344238281,33.70126724243164 L -94.69098663330078,33.69028854370117 L -94.66845703125,33.696537017822266 L -94.65547943115234,33.692291259765625 L -94.64432525634766,33.677650451660156 L -94.66795349121094,33.67145919799805 L -94.66942596435547,33.66606140136719 L -94.65853881835938,33.66373825073242 L -94.63876342773438,33.67010498046875 L -94.6317367553711,33.68389892578125 L -94.60094451904297,33.66560745239258 L -94.5851058959961,33.67898178100586 L -94.57850646972656,33.67047119140625 L -94.56072235107422,33.671913146972656 L -94.5652084350586,33.66301345825195 L -94.58515930175781,33.662132263183594 L -94.58838653564453,33.65544891357422 L -94.57646179199219,33.652156829833984 L -94.54541778564453,33.66162109375 L -94.54193115234375,33.64824676513672 L -94.56219482421875,33.64282989501953 L -94.56214904785156,33.635536193847656 L -94.5501937866211,33.632694244384766 L -94.51799011230469,33.643009185791016 L -94.52505493164062,33.62102127075195 L -94.51055908203125,33.63080978393555 L -94.5006103515625,33.623046875 L -94.47648620605469,33.63196563720703 L -94.4359130859375,33.636444091796875 L -94.43633270263672,33.616844177246094 L -94.45155334472656,33.604347229003906 L -94.44332885742188,33.59650421142578 L -94.428466796875,33.59714126586914 L -94.40657043457031,33.573486328125 L -94.39341735839844,33.57495880126953 L -94.37911224365234,33.593326568603516 L -94.3706283569336,33.59004211425781 L -94.37230682373047,33.572662353515625 L -94.395263671875,33.560302734375 L -94.37075805664062,33.54768371582031 L -94.32875061035156,33.57313537597656 L -94.30238342285156,33.55693435668945 L -94.29882049560547,33.57985305786133 L -94.27898406982422,33.589332580566406 L -94.27207946777344,33.5846061706543 L -94.27454376220703,33.561737060546875 L -94.23723602294922,33.59242248535156 L -94.22303771972656,33.58572006225586 L -94.23536682128906,33.5615348815918 L -94.21088409423828,33.557987213134766 L -94.2053451538086,33.585079193115234 L -94.15951538085938,33.593772888183594 L -94.15516662597656,33.56708526611328 L -94.09870147705078,33.572998046875 L -94.08665466308594,33.583953857421875 L -94.06143188476562,33.577213287353516 L -94.03592681884766,33.555912017822266 L -94.03650665283203,33.27032470703125 L -94.03874969482422,33.02328872680664 L -94.0416030883789,32.882347106933594 L -94.04019927978516,32.6948127746582 L -94.03523254394531,32.389225006103516 L -94.0347671508789,32.19944763183594 L -94.03506469726562,31.9945125579834 L -94.0098876953125,31.989133834838867 L -94.00439453125,31.977941513061523 L -93.97721099853516,31.94615936279297 L -93.96998596191406,31.92316436767578 L -93.93572998046875,31.909456253051758 L -93.91792297363281,31.90970230102539 L -93.9234619140625,31.892593383789062 L -93.89926147460938,31.894454956054688 L -93.89252471923828,31.870065689086914 L -93.88126373291016,31.87141990661621 L -93.87740325927734,31.850112915039062 L -93.86482238769531,31.817272186279297 L -93.8343276977539,31.802017211914062 L -93.82206726074219,31.77463722229004 L -93.83116149902344,31.753280639648438 L -93.80998992919922,31.7303524017334 L -93.81494903564453,31.712350845336914 L -93.80876922607422,31.707565307617188 L -93.79226684570312,31.711395263671875 L -93.81184387207031,31.6745662689209 L -93.80642700195312,31.653766632080078 L -93.81472778320312,31.647966384887695 L -93.81958770751953,31.618091583251953 L -93.83557891845703,31.615188598632812 L -93.8326187133789,31.59018325805664 L -93.81632232666016,31.577110290527344 L -93.81051635742188,31.559062957763672 L -93.7801284790039,31.533735275268555 L -93.7633056640625,31.530723571777344 L -93.74754333496094,31.537717819213867 L -93.73165893554688,31.52187728881836 L -93.70579528808594,31.52056884765625 L -93.718994140625,31.495403289794922 L -93.75043487548828,31.490556716918945 L -93.7512435913086,31.48550033569336 L -93.7267837524414,31.459474563598633 L -93.69841766357422,31.461458206176758 L -93.7019271850586,31.446250915527344 L -93.68700408935547,31.43813133239746 L -93.69612884521484,31.427736282348633 L -93.69444274902344,31.415922164916992 L -93.68749237060547,31.406129837036133 L -93.66401672363281,31.39832878112793 L -93.66107177734375,31.372394561767578 L -93.63485717773438,31.37382698059082 L -93.67704010009766,31.328386306762695 L -93.68158721923828,31.312679290771484 L -93.6561279296875,31.286670684814453 L -93.64559173583984,31.29026222229004 L -93.63082885742188,31.273902893066406 L -93.616455078125,31.27580451965332 L -93.61187744140625,31.27003288269043 L -93.61100006103516,31.2421875 L -93.59054565429688,31.229686737060547 L -93.60292053222656,31.199066162109375 L -93.59394073486328,31.180198669433594 L -93.57694244384766,31.17214012145996 L -93.55059051513672,31.190929412841797 L -93.52892303466797,31.185773849487305 L -93.52693176269531,31.178075790405273 L -93.53701782226562,31.176340103149414 L -93.52832794189453,31.16294288635254 L -93.544189453125,31.15916633605957 L -93.53750610351562,31.1324405670166 L -93.52809143066406,31.125925064086914 L -93.53508758544922,31.116071701049805 L -93.55667877197266,31.109342575073242 L -93.55998229980469,31.100536346435547 L -93.54312133789062,31.094751358032227 L -93.54410552978516,31.082372665405273 L -93.51699829101562,31.074670791625977 L -93.52574157714844,31.05698013305664 L -93.50721740722656,31.038908004760742 L -93.547119140625,31.014141082763672 L -93.56494140625,31.018062591552734 L -93.5678939819336,31.012924194335938 L -93.57084655761719,30.997270584106445 L -93.56095123291016,30.991689682006836 L -93.57245635986328,30.976177215576172 L -93.54867553710938,30.970190048217773 L -93.53733825683594,30.956884384155273 L -93.53218841552734,30.960731506347656 L -93.52561950683594,30.935819625854492 L -93.52998352050781,30.926971435546875 L -93.54962158203125,30.924884796142578 L -93.54651641845703,30.90533447265625 L -93.5644760131836,30.901931762695312 L -93.56849670410156,30.886234283447266 L -93.56084442138672,30.87187957763672 L -93.55280303955078,30.86028289794922 L -93.56644439697266,30.84514808654785 L -93.5556411743164,30.842342376708984 L -93.5506820678711,30.828344345092773 L -93.58187103271484,30.802040100097656 L -93.58517456054688,30.772184371948242 L -93.61845397949219,30.74578857421875 L -93.60765075683594,30.732009887695312 L -93.61779022216797,30.732547760009766 L -93.61241149902344,30.710329055786133 L -93.61760711669922,30.68680191040039 L -93.65998840332031,30.67285919189453 L -93.67797088623047,30.639692306518555 L -93.69287872314453,30.64004135131836 L -93.68458557128906,30.623424530029297 L -93.69269561767578,30.615795135498047 L -93.67158508300781,30.59783172607422 L -93.69342041015625,30.598834991455078 L -93.71781158447266,30.587379455566406 L -93.71788024902344,30.568153381347656 L -93.73530578613281,30.545516967773438 L -93.70545959472656,30.522857666015625 L -93.71463775634766,30.50511360168457 L -93.707275390625,30.496240615844727 L -93.71485137939453,30.488628387451172 L -93.6979751586914,30.470046997070312 L -93.70342254638672,30.462512969970703 L -93.69657135009766,30.4426326751709 L -93.7215347290039,30.432979583740234 L -93.74256134033203,30.408823013305664 L -93.75494384765625,30.38178825378418 L -93.74783325195312,30.36741065979004 L -93.75933837890625,30.354145050048828 L -93.7591781616211,30.340871810913086 L -93.72977447509766,30.304916381835938 L -93.69921112060547,30.297388076782227 L -93.70735931396484,30.23937225341797 L -93.71484375,30.220306396484375 L -93.70436096191406,30.18086051940918 L -93.6961669921875,30.175676345825195 L -93.69966125488281,30.150808334350586 L -93.68314361572266,30.148231506347656 L -93.68595886230469,30.141252517700195 L -93.69863891601562,30.141225814819336 L -93.6969223022461,30.117929458618164 L -93.70838165283203,30.1147403717041 L -93.71585845947266,30.09566879272461 L -93.71247863769531,30.06052017211914 L -93.76020050048828,30.005964279174805 L -93.8572769165039,29.99065399169922 L -93.85633087158203,29.964601516723633 L -93.95176696777344,29.818363189697266 L -93.8349609375,29.674570083618164 L -94.0654067993164,29.674076080322266 L -94.35699462890625,29.559900283813477 L -94.37700653076172,29.551969528198242 L -94.6825180053711,29.432905197143555 L -94.76654815673828,29.36399269104004 L -94.78524780273438,29.38326072692871 L -94.68191528320312,29.47511100769043 L -94.57269287109375,29.533052444458008 L -94.50128173828125,29.51752281188965 L -94.46979522705078,29.556779861450195 L -94.51081085205078,29.545146942138672 L -94.53369903564453,29.553983688354492 L -94.56443786621094,29.578998565673828 L -94.7880859375,29.538557052612305 L -94.7064208984375,29.65851593017578 L -94.70027923583984,29.754568099975586 L -94.73572540283203,29.792985916137695 L -94.82941436767578,29.759857177734375 L -94.88716125488281,29.66853904724121 L -94.93258666992188,29.682209014892578 L -95.08826446533203,29.803979873657227 L -95.04039764404297,29.711578369140625 L -94.98933410644531,29.67970085144043 L -95.01412200927734,29.55926513671875 L -94.9111557006836,29.500333786010742 L -94.9828109741211,29.460527420043945 L -94.94375610351562,29.46468162536621 L -94.95250701904297,29.42423439025879 L -94.91344451904297,29.42011260986328 L -94.9169921875,29.44782257080078 L -94.8911361694336,29.399324417114258 L -94.81535339355469,29.37093162536621 L -94.89147186279297,29.393831253051758 L -94.89878845214844,29.308774948120117 L -94.95113372802734,29.3259220123291 L -95.06636810302734,29.195877075195312 L -95.1605224609375,29.200031280517578 L -95.16477966308594,29.1175479888916 L -95.19734191894531,29.105222702026367 L -95.24840545654297,28.978391647338867 L -95.52658081054688,28.803241729736328 L -95.68302917480469,28.726953506469727 L -95.67131805419922,28.752681732177734 L -95.7863540649414,28.73887062072754 L -95.93730926513672,28.690454483032227 L -95.95614624023438,28.62267303466797 L -95.7021484375,28.71898651123047 L -96.20658111572266,28.488386154174805 L -95.99164581298828,28.596424102783203 L -95.98374938964844,28.653133392333984 L -96.23758697509766,28.571321487426758 L -96.23902893066406,28.597116470336914 L -96.157470703125,28.611230850219727 L -96.2404556274414,28.634859085083008 L -96.15106201171875,28.762672424316406 L -96.21217346191406,28.68671989440918 L -96.28597259521484,28.661724090576172 L -96.27037811279297,28.708980560302734 L -96.32615661621094,28.63408851623535 L -96.3641586303711,28.61798095703125 L -96.39177703857422,28.670251846313477 L -96.39273071289062,28.726028442382812 L -96.42708587646484,28.712013244628906 L -96.44967651367188,28.755035400390625 L -96.43225860595703,28.697248458862305 L -96.40339660644531,28.719493865966797 L -96.41878509521484,28.63866424560547 L -96.37539672851562,28.610088348388672 L -96.49120330810547,28.556943893432617 L -96.4371566772461,28.59699058532715 L -96.45438385009766,28.655933380126953 L -96.48326873779297,28.598054885864258 L -96.51189422607422,28.60818099975586 L -96.51173400878906,28.6495418548584 L -96.57039642333984,28.636266708374023 L -96.570556640625,28.69184112548828 L -96.57221221923828,28.80817413330078 L -96.57648468017578,28.690689086914062 L -96.59149932861328,28.71735954284668 L -96.64651489257812,28.714141845703125 L -96.6600112915039,28.679075241088867 L -96.60670471191406,28.623634338378906 L -96.61034393310547,28.558940887451172 L -96.56670379638672,28.574098587036133 L -96.48657989501953,28.506221771240234 L -96.56319427490234,28.469627380371094 L -96.51850128173828,28.460826873779297 L -96.47650146484375,28.499454498291016 L -96.3907241821289,28.434059143066406 L -96.66130828857422,28.306262969970703 L -96.70236206054688,28.34019660949707 L -96.70381164550781,28.395885467529297 L -96.74076843261719,28.403457641601562 L -96.78709411621094,28.477506637573242 L -96.8238754272461,28.44964027404785 L -96.78833770751953,28.44625473022461 L -96.75910186767578,28.410911560058594 L -96.77536010742188,28.391630172729492 L -96.8534927368164,28.404996871948242 L -96.7882308959961,28.35247039794922 L -96.78627014160156,28.31285858154297 L -96.7933349609375,28.271371841430664 L -96.7779312133789,28.22934913635254 L -96.8036880493164,28.21144676208496 L -96.9509048461914,28.114355087280273 L -96.9127197265625,28.256797790527344 L -96.97530364990234,28.210750579833984 L -96.94107055664062,28.186771392822266 L -96.97510528564453,28.11504554748535 L -97.03361511230469,28.13739776611328 L -97.02356719970703,28.199796676635742 L -97.1318359375,28.13042640686035 L -97.13541412353516,28.16180992126465 L -97.1679916381836,28.159460067749023 L -97.15705871582031,28.11638069152832 L -97.26028442382812,28.06472396850586 L -97.2412338256836,28.04865264892578 L -97.27029418945312,28.02593231201172 L -97.23621368408203,28.04051971435547 L -97.12307739257812,28.05426597595215 L -97.02640533447266,28.107749938964844 L -97.0238037109375,28.02023696899414 L -97.1146240234375,27.915386199951172 L -97.19546508789062,27.812219619750977 L -97.24702453613281,27.82231903076172 L -97.21334075927734,27.83111000061035 L -97.28348541259766,27.871145248413086 L -97.36104583740234,27.839954376220703 L -97.34561920166016,27.873178482055664 L -97.47935485839844,27.852962493896484 L -97.4966812133789,27.875469207763672 L -97.52169799804688,27.86362648010254 L -97.4995346069336,27.843242645263672 L -97.47981262207031,27.820281982421875 L -97.38854217529297,27.8314266204834 L -97.39656066894531,27.77083969116211 L -97.31779479980469,27.71222496032715 L -97.3495101928711,27.715328216552734 L -97.32001495361328,27.69063377380371 L -97.35336303710938,27.64080047607422 L -97.39921569824219,27.63318634033203 L -97.34750366210938,27.631439208984375 L -97.30921173095703,27.707862854003906 L -97.24979400634766,27.688831329345703 L -97.33145904541016,27.562320709228516 L -97.41226196289062,27.32102394104004 L -97.50043487548828,27.31966781616211 L -97.50753784179688,27.4392147064209 L -97.52838134765625,27.344100952148438 L -97.60011291503906,27.300134658813477 L -97.75007629394531,27.419666290283203 L -97.68000793457031,27.29437255859375 L -97.78474426269531,27.2877197265625 L -97.54815673828125,27.230207443237305 L -97.42721557617188,27.265132904052734 L -97.50350189208984,27.081541061401367 L -97.47899627685547,26.99650764465332 L -97.56856536865234,26.97785758972168 L -97.55805206298828,26.846052169799805 L -97.49557495117188,26.793781280517578 L -97.45169830322266,26.600984573364258 L -97.42585754394531,26.518224716186523 L -97.4747085571289,26.476804733276367 L -97.42118835449219,26.385059356689453 L -97.36869812011719,26.359060287475586 L -97.35336303710938,26.182449340820312 L -97.25312042236328,26.068315505981445 L -97.27632141113281,26.002275466918945 L -97.21309661865234,26.00906753540039 L -97.17222595214844,25.95456886291504 L -97.30714416503906,25.965124130249023 L -97.30443572998047,25.938663482666016 L -97.38098907470703,25.917020797729492 L -97.3856430053711,25.845361709594727 L -97.4343490600586,25.845197677612305 L -97.590087890625,25.933231353759766 L -97.57493591308594,25.954172134399414 L -97.61292266845703,25.96200180053711 L -97.6479721069336,26.02344512939453 L -97.867431640625,26.06014060974121 L -98.04006958007812,26.05939483642578 L -98.07634735107422,26.034626007080078 L -98.08321380615234,26.065757751464844 L -98.20069122314453,26.055376052856445 L -98.29194641113281,26.09810447692871 L -98.27135467529297,26.120895385742188 L -98.29227447509766,26.132808685302734 L -98.32793426513672,26.11164665222168 L -98.3471908569336,26.158679962158203 L -98.384521484375,26.156030654907227 L -98.4533920288086,26.220911026000977 L -98.48851776123047,26.2015438079834 L -98.59996795654297,26.260454177856445 L -98.67791748046875,26.242055892944336 L -98.81983184814453,26.375070571899414 L -98.90889739990234,26.360328674316406 L -98.93927001953125,26.395309448242188 L -99.10672760009766,26.419530868530273 L -99.10147094726562,26.488340377807617 L -99.1686782836914,26.54572868347168 L -99.16581726074219,26.57988929748535 L -99.2855224609375,26.85736083984375 L -99.39051818847656,26.946630477905273 L -99.39271545410156,26.99555015563965 L -99.45506286621094,27.028648376464844 L -99.4371566772461,27.19919776916504 L -99.46527099609375,27.26988410949707 L -99.54358673095703,27.318653106689453 L -99.49049377441406,27.490755081176758 L -99.52674102783203,27.504283905029297 L -99.54918670654297,27.612627029418945 L -99.71449279785156,27.661558151245117 L -99.81572723388672,27.780107498168945 L -99.8747329711914,27.797685623168945 L -99.94185638427734,27.986881256103516 L -99.9933090209961,28.003459930419922 L -100.096923828125,28.154281616210938 L -100.21407318115234,28.201934814453125 L -100.22346496582031,28.241456985473633 L -100.29792022705078,28.280353546142578 L -100.29289245605469,28.32036018371582 L -100.35157012939453,28.394182205200195 L -100.37677001953125,28.47865104675293 L -100.3458023071289,28.500810623168945 L -100.4195327758789,28.544191360473633 L -100.4031753540039,28.589733123779297 L -100.49790954589844,28.660987854003906 L -100.58979034423828,28.894222259521484 L -100.64722442626953,28.92234992980957 L -100.66876983642578,29.0800724029541 L -100.76860809326172,29.16657066345215 L -100.79698944091797,29.242502212524414 L -101.0090560913086,29.373254776000977 L -101.0673599243164,29.473552703857422 L -101.26142883300781,29.526473999023438 L -101.25458526611328,29.62874984741211 L -101.30892944335938,29.580909729003906 L -101.30586242675781,29.65243148803711 L -101.36840057373047,29.657161712646484 L -101.41609954833984,29.745433807373047 L -101.40127563476562,29.76990509033203 L -101.44842529296875,29.76058578491211 L -101.47046661376953,29.7886905670166 L -101.53834533691406,29.763017654418945 L -101.54395294189453,29.81011962890625 L -101.58148956298828,29.76515007019043 L -101.6396713256836,29.756959915161133 L -101.75909423828125,29.787166595458984 L -101.80520629882812,29.779998779296875 L -101.81909942626953,29.814125061035156 L -101.92422485351562,29.788501739501953 L -101.97332000732422,29.81877326965332 L -102.06399536132812,29.784570693969727 L -102.32433319091797,29.880115509033203 L -102.36756134033203,29.84528923034668 L -102.38479614257812,29.767946243286133 L -102.50309753417969,29.78545570373535 L -102.55194854736328,29.749500274658203 L -102.57649993896484,29.778247833251953 L -102.63761138916016,29.732337951660156 L -102.67636108398438,29.744224548339844 L -102.80472564697266,29.5301456451416 L -102.82220458984375,29.41184425354004 L -102.88301086425781,29.353370666503906 L -102.9083251953125,29.269203186035156 L -102.86617279052734,29.229036331176758 L -102.98809814453125,29.19086265563965 L -103.1534652709961,28.978681564331055 L -103.26658630371094,29.00745391845703 L -103.28034973144531,28.986373901367188 L -103.33551788330078,29.050338745117188 L -103.37545013427734,29.032108306884766 L -103.47407531738281,29.072134017944336 L -103.52623748779297,29.14664649963379 L -103.7203140258789,29.190631866455078 L -103.73985290527344,29.230348587036133 L -103.78215789794922,29.229795455932617 L -103.76776123046875,29.281240463256836 L -103.78699493408203,29.26725959777832 L -104.0456314086914,29.3281192779541 L -104.16438293457031,29.400714874267578 L -104.2047348022461,29.484041213989258 L -104.37759399414062,29.55061149597168 L -104.53524780273438,29.679466247558594 L -104.57756042480469,29.80793571472168 L -104.67436981201172,29.909282684326172 L -104.69649505615234,30.057302474975586 L -104.67475891113281,30.148963928222656 L -104.7026138305664,30.238489151000977 L -104.81395721435547,30.3504695892334 L -104.80647277832031,30.376447677612305 L -104.85299682617188,30.392263412475586 L -104.89067840576172,30.570556640625 L -104.98693084716797,30.641324996948242 L -104.99754333496094,30.68433380126953 L -105.06056213378906,30.687870025634766 L -105.21434020996094,30.81208610534668 L -105.25818634033203,30.797653198242188 L -105.28759765625,30.83194923400879 L -105.31378173828125,30.81650733947754 L -105.39031219482422,30.85308074951172 L -105.40906524658203,30.902509689331055 L -105.55438232421875,30.9982852935791 L -105.60321807861328,31.086427688598633 L -105.76972961425781,31.170780181884766 L -105.99835968017578,31.393817901611328 z" /><path fill-rule="evenodd" fill="#66cc99" stroke="#555555" stroke-width="0.28387359008789076" opacity="0.6" d="M -94.9134292602539,29.257572174072266 L -94.76737976074219,29.342451095581055 L -94.74840545654297,29.319490432739258 L -95.10541534423828,29.09695816040039 L -94.9134292602539,29.257572174072266 z" /><path fill-rule="evenodd" fill="#66cc99" stroke="#555555" stroke-width="0.28387359008789076" opacity="0.6" d="M -96.39788055419922,28.34584617614746 L -96.83462524414062,28.066322326660156 L -96.80384063720703,28.172161102294922 L -96.73890686035156,28.183534622192383 L -96.53213500976562,28.31824493408203 L -96.46305084228516,28.32583236694336 L -96.42255401611328,28.39143943786621 L -96.39788055419922,28.34584617614746 z" /><path fill-rule="evenodd" fill="#66cc99" stroke="#555555" stroke-width="0.28387359008789076" opacity="0.6" d="M -96.9399642944336,28.04593276977539 L -96.87242126464844,28.131404876708984 L -96.8374252319336,28.10184097290039 L -96.85380554199219,28.049402236938477 L -97.04960632324219,27.840953826904297 L -97.02442932128906,27.91438102722168 L -96.94938659667969,27.984525680541992 L -96.9729995727539,28.000852584838867 L -96.9399642944336,28.04593276977539 z" /><path fill-rule="evenodd" fill="#66cc99" stroke="#555555" stroke-width="0.28387359008789076" opacity="0.6" d="M -97.35911560058594,27.28371810913086 L -97.37937927246094,27.210453033447266 L -97.37609100341797,27.284643173217773 L -97.33550262451172,27.440818786621094 L -97.24867248535156,27.581132888793945 L -97.25868225097656,27.651748657226562 L -97.20358276367188,27.612064361572266 L -97.17018127441406,27.707460403442383 L -97.0752944946289,27.8112735748291 L -97.113037109375,27.819215774536133 L -97.0535659790039,27.830472946166992 L -97.22371673583984,27.574007034301758 L -97.35911560058594,27.28371810913086 z" /><path fill-rule="evenodd" fill="#66cc99" stroke="#555555" stroke-width="0.28387359008789076" opacity="0.6" d="M -97.30113220214844,26.601022720336914 L -97.35802459716797,26.706645965576172 L -97.38133239746094,26.820375442504883 L -97.39530944824219,26.921987533569336 L -97.40090942382812,27.11122703552246 L -97.38878631591797,27.201650619506836 L -97.37853240966797,27.204448699951172 L -97.38692474365234,27.097244262695312 L -97.38133239746094,26.94902229309082 L -97.35802459716797,26.802663803100586 L -97.29583740234375,26.600669860839844 L -97.23210906982422,26.418142318725586 L -97.19499206542969,26.259241104125977 L -97.17179870605469,26.077720642089844 L -97.17933654785156,26.07192039489746 L -97.20891571044922,26.25054168701172 L -97.22631072998047,26.34855079650879 L -97.25125122070312,26.41930389404297 L -97.26725006103516,26.478904724121094 L -97.27854919433594,26.539962768554688 L -97.30113220214844,26.601022720336914 z" /></g></g></svg>